<?xml version="1.0" encoding="utf-8"?>
<!-- Uploaded to: SVG Repo, www.svgrepo.com, Generator: SVG Repo Mixer Tools -->
<svg width="800px" height="800px" viewBox="0 -7.09 46.398 46.398" xmlns="http://www.w3.org/2000/svg">
  <g id="Group_335" data-name="Group 335" transform="translate(-111.168 -152.531)">
    <g id="Group_261" data-name="Group 261">
      <g id="gold_coffee" data-name="gold coffee">
        <g id="Group_252" data-name="Group 252">
          <path id="Path_198" data-name="Path 198" d="M134.367,161.674c-5.875,0-12.2-1.431-12.2-4.572s6.324-4.571,12.2-4.571,12.2,1.43,12.2,4.571S140.243,161.674,134.367,161.674Zm0-7.143c-6.729,0-10.2,1.8-10.2,2.571s3.47,2.572,10.2,2.572,10.2-1.8,10.2-2.572S141.1,154.531,134.367,154.531Z" fill="#333"/>
        </g>
        <g id="Group_253" data-name="Group 253">
          <path id="Path_199" data-name="Path 199" d="M134.367,181.893c-8.024,0-23.2-1.239-23.2-5.928,0-3.012,6.276-4.492,11.541-5.2a1,1,0,0,1,.268,1.983c-7.339.991-9.809,2.627-9.809,3.221,0,1.333,7.482,3.928,21.2,3.928s21.2-2.6,21.2-3.928c0-.313-1.221-1.705-7.2-2.807a1,1,0,0,1,.363-1.967c5.862,1.082,8.834,2.688,8.834,4.774C157.566,180.654,142.391,181.893,134.367,181.893Z" fill="#333"/>
        </g>
        <g id="Group_254" data-name="Group 254">
          <path id="Path_200" data-name="Path 200" d="M134.688,184.75a39.926,39.926,0,0,1-19.489-5.174,1,1,0,1,1,.993-1.736,38.374,38.374,0,0,0,18.5,4.91c6.912,0,13.616-2.683,18.024-4.933a1,1,0,0,1,.909,1.782C149.018,181.949,142,184.75,134.688,184.75Z" fill="#333"/>
        </g>
        <g id="Group_255" data-name="Group 255">
          <path id="Path_201" data-name="Path 201" d="M119.187,178.094a1.011,1.011,0,0,1-1-1.014c0-1.907,2.719-3.275,8.08-4.066a1,1,0,1,1,.292,1.978c-4.952.732-6.288,1.855-6.375,2.116A.987.987,0,0,1,119.187,178.094Z" fill="#333"/>
        </g>
        <g id="Group_256" data-name="Group 256">
          <path id="Path_202" data-name="Path 202" d="M149.858,178.08a1,1,0,0,1-1-1c-.078-.218-1.321-1.284-5.917-2.018a1,1,0,0,1,.316-1.975c5.044.806,7.6,2.149,7.6,3.993A1,1,0,0,1,149.858,178.08Z" fill="#333"/>
        </g>
        <g id="Group_257" data-name="Group 257">
          <path id="Path_203" data-name="Path 203" d="M134.367,178.924c-1.381,0-5.564-.3-6.624-1.639a1.347,1.347,0,0,1-.277-1.161,5.976,5.976,0,0,1,.5-1.326c.335-.688.538-1.1-2.733-4.69-5.06-5.548-3.117-13.112-3.032-13.431a1,1,0,0,1,1.933.513c-.018.068-1.735,6.842,2.577,11.571,3.637,3.987,3.931,5.113,3.053,6.914-.08.162-.156.319-.223.49a14.055,14.055,0,0,0,4.825.759,13.384,13.384,0,0,0,4.812-.784c-.065-.162-.138-.311-.213-.465-.878-1.8-.584-2.927,3.053-6.914,4.312-4.729,2.6-11.5,2.577-11.571a1,1,0,0,1,1.933-.513c.085.319,2.028,7.883-3.032,13.431-3.271,3.587-3.068,4-2.733,4.69a6.115,6.115,0,0,1,.48,1.24.994.994,0,0,1,.051.314C141.295,178.9,134.65,178.924,134.367,178.924Z" fill="#333"/>
        </g>
        <g id="Group_258" data-name="Group 258">
          <path id="Path_204" data-name="Path 204" d="M134.367,164.205c-4.714,0-9.148-.872-11.859-2.332l.948-1.761c2.434,1.31,6.513,2.093,10.911,2.093,4.47,0,8.719-.84,11.09-2.192l.992,1.737C143.753,163.287,139.237,164.205,134.367,164.205Z" fill="#333"/>
        </g>
        <g id="Group_259" data-name="Group 259">
          <path id="Path_205" data-name="Path 205" d="M134.4,175.74a15.267,15.267,0,0,1-5.7-1.034l.754-1.852a14.317,14.317,0,0,0,9.843.027l.74,1.858A15.407,15.407,0,0,1,134.4,175.74Z" fill="#333"/>
        </g>
        <g id="Group_260" data-name="Group 260">
          <path id="Path_206" data-name="Path 206" d="M144.851,170.041a1,1,0,0,1-.392-1.92,16.977,16.977,0,0,0,6.667-5.488c.4-.607.959-1.716.271-2.326a2.921,2.921,0,0,0-3.467.378,1,1,0,0,1-1.285-1.533c1.834-1.536,4.562-1.69,6.081-.341.487.433,1.935,2.068.075,4.916a18.733,18.733,0,0,1-7.56,6.234A.98.98,0,0,1,144.851,170.041Z" fill="#333"/>
        </g>
      </g>
    </g>
  </g>
</svg>