<svg width="25" height="24" viewBox="0 0 25 24" fill="none" xmlns="http://www.w3.org/2000/svg">
<path d="M11.2417 3C9.2798 3 7.39822 3.77938 6.01092 5.16668C4.62362 6.55398 3.84424 8.43556 3.84424 10.3975C3.84424 12.3594 4.62362 14.241 6.01092 15.6283C7.39822 17.0156 9.2798 17.795 11.2417 17.795C13.2037 17.795 15.0853 17.0156 16.4726 15.6283C17.8599 14.241 18.6392 12.3594 18.6392 10.3975C18.6392 8.43556 17.8599 6.55398 16.4726 5.16668C15.0853 3.77938 13.2037 3 11.2417 3ZM4.83174 10.397C4.82114 9.54842 4.97912 8.70619 5.29653 7.91914C5.61393 7.13209 6.08443 6.41588 6.68076 5.81207C7.27708 5.20825 7.98735 4.72884 8.77037 4.40163C9.5534 4.07442 10.3936 3.90593 11.2422 3.90593C12.0909 3.90593 12.9311 4.07442 13.7141 4.40163C14.4971 4.72884 15.2074 5.20825 15.8037 5.81207C16.4 6.41588 16.8705 7.13209 17.188 7.91914C17.5054 8.70619 17.6633 9.54842 17.6527 10.397C17.6527 12.0973 16.9773 13.728 15.775 14.9303C14.5727 16.1326 12.942 16.808 11.2417 16.808C9.54144 16.808 7.91077 16.1326 6.70848 14.9303C5.50618 13.728 4.83174 12.0973 4.83174 10.397Z" fill="black"/>
<path d="M17.6827 15.7921C17.6149 15.7198 17.5332 15.6619 17.4425 15.6218C17.3518 15.5817 17.254 15.5602 17.1549 15.5587C17.0558 15.5571 16.9573 15.5755 16.8655 15.6127C16.7736 15.6499 16.6901 15.7052 16.62 15.7753C16.5499 15.8454 16.4946 15.9289 16.4574 16.0208C16.4202 16.1127 16.4018 16.2111 16.4034 16.3102C16.4049 16.4094 16.4264 16.5072 16.4665 16.5978C16.5066 16.6885 16.5644 16.7702 16.6367 16.8381L20.5817 20.7831C20.6496 20.8553 20.7313 20.9132 20.8219 20.9533C20.9126 20.9934 21.0104 21.0149 21.1095 21.0164C21.2087 21.018 21.3071 20.9996 21.399 20.9624C21.4909 20.9252 21.5743 20.8699 21.6444 20.7998C21.7145 20.7297 21.7698 20.6462 21.8071 20.5543C21.8443 20.4624 21.8627 20.364 21.8611 20.2649C21.8595 20.1658 21.8381 20.0679 21.798 19.9773C21.7579 19.8866 21.7 19.8049 21.6277 19.7371L17.6827 15.7921Z" fill="black"/>
</svg>
